<svg xmlns="http://www.w3.org/2000/svg" xmlns:xlink="http://www.w3.org/1999/xlink" width="2048" zoomAndPan="magnify" viewBox="0 0 1536 1535.999932" height="2048" preserveAspectRatio="xMidYMid meet" version="1.2"><defs><filter x="0%" y="0%" width="100%" filterUnits="objectBoundingBox" id="8f378b5efd" height="100%"><feColorMatrix values="0 0 0 0 1 0 0 0 0 1 0 0 0 0 1 0 0 0 1 0" type="matrix" in="SourceGraphic"></feColorMatrix></filter><clipPath id="dae93c612a"><path d="M 1 1 L 85.398438 1 L 85.398438 193.320312 L 1 193.320312 Z M 1 1 " clip-rule="nonzero"/></clipPath><clipPath id="92aae3434a"><rect x="0" width="86" y="0" height="194"/></clipPath><clipPath id="d8aae94c63"><path d="M 1 0.078125 L 125.28125 0.078125 L 125.28125 107.601562 L 1 107.601562 Z M 1 0.078125 " clip-rule="nonzero"/></clipPath><clipPath id="358eae1549"><rect x="0" width="126" y="0" height="108"/></clipPath><clipPath id="7384926750"><path d="M 0.839844 0.359375 L 101.878906 0.359375 L 101.878906 100.679688 L 0.839844 100.679688 Z M 0.839844 0.359375 " clip-rule="nonzero"/></clipPath><clipPath id="13a8fbec3c"><rect x="0" width="102" y="0" height="101"/></clipPath><clipPath id="fa954a6e8d"><path d="M 1 1 L 113.761719 1 L 113.761719 87 L 1 87 Z M 1 1 " clip-rule="nonzero"/></clipPath><clipPath id="0a58999b14"><rect x="0" width="114" y="0" height="88"/></clipPath><clipPath id="3fa0c4bef0"><rect x="0" width="63" y="0" height="97"/></clipPath><clipPath id="343f5b8d1a"><path d="M 1 0.480469 L 36 0.480469 L 36 89 L 1 89 Z M 1 0.480469 " clip-rule="nonzero"/></clipPath><clipPath id="37370f181c"><rect x="0" width="37" y="0" height="90"/></clipPath><clipPath id="dbd83bcd16"><path d="M 1 1 L 70.519531 1 L 70.519531 74 L 1 74 Z M 1 1 " clip-rule="nonzero"/></clipPath><clipPath id="9feb2115e0"><rect x="0" width="71" y="0" height="75"/></clipPath><clipPath id="dd08843200"><path d="M 1 0.679688 L 131 0.679688 L 131 156.921875 L 1 156.921875 Z M 1 0.679688 " clip-rule="nonzero"/></clipPath><clipPath id="a9c29da634"><rect x="0" width="132" y="0" height="157"/></clipPath><clipPath id="1569362115"><path d="M 0.160156 1 L 76 1 L 76 78 L 0.160156 78 Z M 0.160156 1 " clip-rule="nonzero"/></clipPath><clipPath id="b4c48ea8f6"><rect x="0" width="76" y="0" height="79"/></clipPath><clipPath id="e700005e18"><path d="M 1 1 L 81.878906 1 L 81.878906 66.917969 L 1 66.917969 Z M 1 1 " clip-rule="nonzero"/></clipPath><clipPath id="9be76f7d33"><rect x="0" width="82" y="0" height="67"/></clipPath><clipPath id="50169d5cbe"><path d="M 0.160156 1 L 63.519531 1 L 63.519531 51.878906 L 0.160156 51.878906 Z M 0.160156 1 " clip-rule="nonzero"/></clipPath><clipPath id="cac4ebe7a1"><rect x="0" width="64" y="0" height="52"/></clipPath><clipPath id="84383fac92"><path d="M 0.078125 0.359375 L 72 0.359375 L 72 89.640625 L 0.078125 89.640625 Z M 0.078125 0.359375 " clip-rule="nonzero"/></clipPath><clipPath id="96b105b91d"><rect x="0" width="73" y="0" height="90"/></clipPath><clipPath id="496931cf94"><path d="M 0.398438 0.398438 L 109 0.398438 L 109 86.800781 L 0.398438 86.800781 Z M 0.398438 0.398438 " clip-rule="nonzero"/></clipPath><clipPath id="fe55fd1674"><rect x="0" width="110" y="0" height="87"/></clipPath><clipPath id="93043ed1fb"><path d="M 0.359375 0.238281 L 90.359375 0.238281 L 90.359375 100.558594 L 0.359375 100.558594 Z M 0.359375 0.238281 " clip-rule="nonzero"/></clipPath><clipPath id="49cf55e439"><rect x="0" width="91" y="0" height="101"/></clipPath><clipPath id="e94e8ccd91"><path d="M 0.839844 1 L 62.039062 1 L 62.039062 124.761719 L 0.839844 124.761719 Z M 0.839844 1 " clip-rule="nonzero"/></clipPath><clipPath id="2ef801a5e5"><rect x="0" width="63" y="0" height="125"/></clipPath><clipPath id="c0b99b4f27"><path d="M 0.800781 1 L 69 1 L 69 109.761719 L 0.800781 109.761719 Z M 0.800781 1 " clip-rule="nonzero"/></clipPath><clipPath id="43387b2d89"><rect x="0" width="70" y="0" height="110"/></clipPath><clipPath id="1047a13fe7"><path d="M 0.359375 0.441406 L 86.519531 0.441406 L 86.519531 72 L 0.359375 72 Z M 0.359375 0.441406 " clip-rule="nonzero"/></clipPath><clipPath id="36d5abd88b"><rect x="0" width="87" y="0" height="73"/></clipPath><clipPath id="1f7531f716"><path d="M 0.199219 0.199219 L 85.640625 0.199219 L 85.640625 71.960938 L 0.199219 71.960938 Z M 0.199219 0.199219 " clip-rule="nonzero"/></clipPath><clipPath id="3948dd6fc4"><rect x="0" width="86" y="0" height="72"/></clipPath><clipPath id="853b8ae3d6"><path d="M 0.320312 1 L 116.71875 1 L 116.71875 110 L 0.320312 110 Z M 0.320312 1 " clip-rule="nonzero"/></clipPath><clipPath id="811b8909da"><rect x="0" width="117" y="0" height="111"/></clipPath><clipPath id="882018ef40"><path d="M 243.113281 300.824219 L 1294 300.824219 L 1294 1122 L 243.113281 1122 Z M 243.113281 300.824219 " clip-rule="nonzero"/></clipPath><clipPath id="261bc6317d"><path d="M 243.113281 300.824219 L 1294.613281 300.824219 L 1294.613281 1108 L 243.113281 1108 Z M 243.113281 300.824219 " clip-rule="nonzero"/></clipPath><clipPath id="96389a1222"><path d="M 0.359375 0.824219 L 1051 0.824219 L 1051 807.839844 L 0.359375 807.839844 Z M 0.359375 0.824219 " clip-rule="nonzero"/></clipPath><clipPath id="e7f30b9a4e"><path d="M 1050.347656 458.789062 C 1049.507812 444.847656 1046.5 430.78125 1041.3125 416.6875 C 1040.386719 414.15625 1039.394531 411.625 1038.335938 409.09375 C 1033.242188 397.007812 1026.578125 384.890625 1018.339844 372.820312 C 1013.683594 365.964844 1008.496094 359.128906 1002.808594 352.316406 C 1003.964844 346.894531 1005.007812 341.59375 1005.921875 336.382812 C 1006.671875 332.027344 1007.339844 327.753906 1007.929688 323.546875 C 1009.921875 309.148438 1010.777344 295.644531 1010.21875 283.09375 C 1009.695312 270.945312 1007.863281 259.699219 1004.480469 249.394531 C 1002.640625 243.742188 1000.316406 238.402344 997.484375 233.332031 C 990.039062 220.019531 979.09375 208.753906 963.871094 199.734375 C 958.550781 196.585938 952.695312 193.71875 946.304688 191.105469 C 944.804688 186.296875 943.15625 181.683594 941.375 177.285156 C 939.007812 171.457031 936.402344 165.960938 933.585938 160.789062 C 924.660156 144.363281 913.546875 131.078125 901.140625 120.292969 C 894.460938 114.464844 887.394531 109.359375 880.082031 104.882812 C 872.203125 100.039062 864.042969 95.929688 855.761719 92.40625 C 836.800781 84.335938 817.269531 79.375 799.21875 76.007812 C 792.914062 69.296875 786.46875 63.050781 779.914062 57.238281 C 774.625 52.597656 769.246094 48.222656 763.8125 44.167969 C 758.734375 40.347656 753.578125 36.796875 748.382812 33.515625 C 719.839844 15.441406 689.554688 4.972656 658.65625 1.839844 C 601.605469 -3.972656 542.429688 15.199219 488.199219 57.542969 C 483.6875 55.253906 479.148438 53.136719 474.597656 51.164062 C 470.160156 49.257812 465.703125 47.492188 461.222656 45.890625 C 373.378906 14.242188 279.367188 40.511719 232.976562 124.234375 C 232.050781 125.882812 231.167969 127.5625 230.285156 129.253906 C 176.949219 121.851562 121.878906 159.789062 98.949219 209.683594 C 89.453125 230.324219 85.472656 252.996094 89.363281 275.359375 C 7.53125 316.007812 -12.871094 391.285156 8.007812 453.875 C 10.570312 461.589844 13.777344 469.109375 17.550781 476.355469 C 19.976562 480.984375 22.625 485.492188 25.53125 489.863281 C 37.023438 507.269531 52.164062 522.46875 70.324219 534.046875 C 76.453125 537.96875 82.90625 541.460938 89.6875 544.46875 C 91.726562 545.382812 93.792969 546.25 95.890625 547.058594 C 113.742188 554.085938 133.664062 557.933594 155.226562 557.660156 C 164.289062 557.558594 173.648438 556.703125 183.261719 555.070312 C 188.773438 554.144531 194.363281 552.945312 200.050781 551.472656 C 201.84375 551.011719 203.648438 550.53125 205.457031 550.003906 C 217.285156 546.617188 229.46875 542.035156 241.929688 536.148438 C 253.628906 555.410156 268.15625 572.5 284.796875 587.242188 C 285.144531 587.558594 285.503906 587.867188 285.863281 588.183594 C 288.816406 590.785156 291.839844 593.316406 294.941406 595.761719 C 315.085938 611.753906 337.839844 624.5625 362.011719 633.925781 C 373.589844 618.285156 386.832031 601.769531 401.871094 584.769531 C 376.613281 577.324219 353.058594 565.121094 333.109375 549.1875 C 330.347656 547 327.671875 544.734375 325.066406 542.386719 C 324.066406 541.503906 323.082031 540.59375 322.109375 539.671875 C 317.859375 535.722656 313.8125 531.539062 310.007812 527.210938 C 302.179688 511.25 290.542969 480.410156 288.269531 449.613281 C 288.109375 447.445312 287.984375 445.273438 287.925781 443.113281 C 287.820312 439.890625 287.835938 436.675781 287.984375 433.496094 C 288.660156 418.503906 292.175781 404.1875 300.128906 392.308594 C 314.597656 370.738281 343.664062 357.46875 385.679688 352.898438 C 385.996094 352.871094 386.324219 352.824219 386.632812 352.796875 C 405.296875 350.847656 426.492188 350.597656 450.0625 352.074219 C 454.808594 352.363281 459.664062 352.738281 464.605469 353.171875 C 478.023438 362.425781 493.449219 369.074219 509.804688 373.195312 C 575.675781 329.226562 648.554688 292.390625 728.265625 262.796875 C 731.589844 254.484375 734.28125 245.867188 736.347656 237.003906 C 736.554688 236.152344 736.738281 235.296875 736.914062 234.445312 C 738.894531 225.425781 740.210938 216.140625 740.851562 206.628906 C 743.292969 167.316406 781.214844 145.570312 819.691406 157.339844 C 839.832031 163.859375 852.449219 173.78125 858.019531 185.558594 C 859.652344 188.972656 860.667969 192.554688 861.101562 196.257812 C 862.128906 204.773438 860.070312 213.941406 855.03125 223.261719 C 890.195312 214.214844 926.472656 206.363281 963.84375 199.730469 C 979.066406 208.75 990.007812 220.011719 997.476562 233.324219 C 1000.304688 238.394531 1002.628906 243.734375 1004.46875 249.386719 C 1007.851562 259.691406 1009.683594 270.941406 1010.203125 283.085938 C 1010.761719 295.636719 1009.910156 309.140625 1007.917969 323.539062 C 1007.328125 327.746094 1006.660156 332.019531 1005.90625 336.375 C 1004.992188 341.585938 1003.949219 346.886719 1002.792969 352.308594 C 1002.792969 352.308594 1004.90625 359.082031 1009.585938 366.324219 L 1009.585938 366.324219 C 1019.105469 379.398438 1026.445312 394.316406 1031.324219 409.507812 C 1030.949219 409.234375 1030.570312 408.964844 1030.21875 408.683594 C 1009.382812 394.984375 985.738281 387.660156 959.507812 385.339844 C 959.238281 385.324219 958.960938 385.296875 958.6875 385.28125 C 944.886719 384.660156 931.246094 386.007812 918.40625 389.453125 C 917.789062 389.636719 917.191406 389.851562 916.589844 390.070312 C 896.074219 396.632812 875.039062 411.660156 855.605469 437.679688 C 853.625 440.34375 851.804688 443.105469 850.128906 445.949219 C 846.933594 451.359375 844.179688 457.058594 841.855469 462.988281 C 840.941406 465.238281 840.121094 467.542969 839.382812 469.882812 C 832.398438 490.324219 834.785156 509.753906 851.886719 524.089844 C 855.570312 527.40625 859.800781 529.808594 864.472656 531.269531 C 868.457031 532.480469 872.824219 533.261719 877.15625 533.597656 C 897.488281 535.191406 912.386719 522.777344 915.238281 504.320312 C 915.976562 499.417969 916.027344 494.367188 915.429688 489.503906 C 914.9375 485.410156 913.953125 481.402344 912.527344 477.53125 C 907.007812 463.148438 894.980469 452.617188 879.269531 447.988281 C 874.070312 446.460938 868.75 445.457031 863.261719 445.03125 C 850.691406 443.964844 840.480469 450.707031 836.664062 458.621094 C 835.253906 461.5625 834.367188 464.648438 833.992188 467.765625 C 833.660156 470.539062 833.53125 473.363281 833.679688 476.203125 C 834.664062 496.128906 845.558594 514.761719 862.757812 528.597656 C 868.640625 533.386719 875.191406 537.15625 882.175781 540.046875 C 917.367188 552.25 958.03125 545.800781 974.734375 529.253906 C 982.992188 521.082031 988.933594 511.113281 992.121094 500.355469 C 992.140625 500.285156 992.140625 500.214844 992.15625 500.152344 C 992.953125 497.636719 993.527344 495.171875 993.90625 492.75 C 995.441406 482.480469 994.226562 472.242188 990.746094 462.84375 C 989.257812 458.875 987.382812 455.078125 985.152344 451.492188 C 984.835938 450.976562 984.5 450.472656 984.175781 449.976562 C 975.742188 436.917969 965.015625 424.945312 951.632812 416.65625 C 951.484375 416.570312 951.34375 416.480469 951.203125 416.390625 C 925.359375 399.609375 901.933594 396.160156 882.625 399.59375 C 878.308594 400.273438 874.050781 401.199219 869.84375 402.371094 C 863.878906 403.992188 857.992188 406.089844 852.152344 408.5625 C 833.285156 416.714844 815.09375 429.292969 803.1875 413.566406 C 797.195312 405.414062 794.015625 395.421875 794.015625 385.128906 C 794.015625 367.847656 800.59375 352.875 811.589844 341.761719 C 815.601562 337.679688 820.148438 334.175781 825.03125 331.253906 C 828.015625 329.492188 831.109375 327.980469 834.320312 326.699219 C 843.746094 323.234375 853.5 322.511719 863.011719 322.609375 C 867.414062 322.65625 871.777344 323.066406 875.972656 323.78125 C 900.820312 327.113281 920.15625 338.589844 932.921875 357.511719 C 934.746094 360.125 936.382812 362.875 937.828125 365.75 C 942.808594 375.34375 945.652344 385.632812 946.523438 396.265625 C 947.09375 402.972656 947.023438 409.753906 946.269531 416.402344 C 944.800781 429.222656 940.710938 441.628906 934.390625 453.082031 C 932.996094 455.566406 931.492188 457.972656 929.898438 460.3125 C 927.214844 464.28125 924.253906 467.972656 920.984375 471.355469 C 913.769531 478.867188 904.660156 483.910156 894.519531 485.960938 C 886.417969 487.640625 877.953125 488.484375 869.359375 488.460938 C 855.976562 488.425781 842.796875 486.035156 829.742188 481.480469 C 828.089844 480.886719 826.453125 480.238281 824.855469 479.566406 C 774.238281 456.707031 749.199219 404.300781 748.035156 400.621094 C 748.238281 400.832031 748.464844 401.015625 748.671875 401.214844 C 764.488281 415.289062 781.382812 426.613281 798.78125 435.128906 C 799.136719 435.304688 799.496094 435.472656 799.851562 435.644531 C 801.757812 436.5625 803.707031 437.40625 805.683594 438.207031 C 812.125 440.804688 818.777344 442.820312 825.582031 444.207031 C 844.128906 447.863281 864.617188 445.867188 885.0625 437.328125 C 895.078125 433.308594 904.363281 427.28125 912.453125 419.28125 C 913.941406 417.953125 915.359375 416.566406 916.707031 415.113281 C 917.410156 414.375 918.101562 413.628906 918.765625 412.871094 C 925.640625 404.757812 931.300781 395.558594 935.4375 385.652344 C 935.753906 384.871094 936.066406 384.070312 936.351562 383.261719 C 950.308594 345.578125 932.457031 312.535156 932.421875 312.488281 L 917.054688 261.828125 C 916.980469 261.605469 916.90625 261.390625 916.820312 261.168 C 914.914062 255.878906 912.707031 250.621094 910.234375 245.429688 C 890.328125 204.09375 850.625 180.128906 806.675781 180.128906 C 804.429688 180.128906 802.1875 180.191406 799.957031 180.320312 C 754.238281 182.960938 733.78125 213.796875 736.050781 237.75 C 736.472656 241.953125 737.300781 246.105469 738.558594 250.207031 C 738.945312 251.328125 739.367188 252.441406 739.796875 253.554688 C 745.988281 270.230469 755.269531 285.921875 767.039062 299.15625 C 768.101562 300.351562 769.179688 301.53125 770.273438 302.691406 C 775.367188 307.742188 781.101562 312.230469 787.5625 316.136719 C 793.792969 319.910156 800.429688 322.757812 807.324219 324.5625 C 809.660156 325.105469 812.050781 325.507812 814.433594 325.792969 C 816.8125 326.082031 819.253906 326.238281 821.75 326.238281 C 843.515625 326.238281 867.101562 319.328125 889.21875 300.414062 L 889.226562 300.40625 C 905.988281 286.644531 922.039062 269.441406 925.238281 246.5 C 925.664062 243.402344 925.75 240.269531 925.507812 237.167969 C 924.996094 230.628906 923.492188 224.03125 920.984375 217.570312 C 917.671875 209.226562 912.734375 201.746094 906.515625 195.308594 C 906.140625 194.929688 905.742188 194.566406 905.359375 194.207031 C 898.191406 187.164062 890.203125 181.273438 881.777344 176.558594 C 869.550781 170.054688 856.382812 165.523438 842.734375 163.214844 C 837.472656 162.289062 832.03125 161.878906 826.523438 162.019531 C 811.292969 162.425781 796.480469 168.683594 784.914062 178.667969 C 776.355469 185.921875 769.292969 194.90625 764.019531 205.359375 C 762.671875 208.046875 761.421875 210.78125 760.253906 213.5625 C 755.066406 225.65625 752.285156 238.59375 752.070312 251.5625 C 751.839844 265.609375 754.742188 279.039062 760.429688 290.929688 C 763.652344 297.570312 767.96875 303.710938 773.210938 309.207031 C 774.09375 310.058594 775.007812 310.890625 775.929688 311.707031 C 776.035156 311.8125 776.136719 311.917969 776.242188 312.027344 C 797.191406 330.902344 823.53125 336.121094 847.445312 330.820312 C 866.746094 326.410156 881.316406 313.308594 889.125 294.496094 C 889.625 293.273438 890.097656 292.023438 890.523438 290.742188 C 893.140625 283.421875 894.296875 275.605469 894.011719 267.625 C 893.710938 259.34375 891.964844 251.257812 888.871094 243.613281 C 886.941406 238.371094 884.511719 233.320312 881.675781 228.550781 C 877.023438 218.421875 870.316406 209.902344 862.015625 202.804688 C 861.691406 202.492188 861.371094 202.195312 861.046875 201.898438 C 841.753906 185.367188 817.621094 179.519531 796.035156 181.15625 C 793.699219 181.332031 791.363281 181.585938 789.035156 181.925781 C 761.667969 186.28125 748.167969 209.550781 751.175781 227.917969 C 752.0625 233.066406 753.53125 237.996094 755.542969 242.621094 C 759.972656 253.074219 767.027344 262.511719 776.117188 269.753906 C 776.285156 269.875 776.464844 270.011719 776.644531 270.136719 C 800.976562 285.425781 827.753906 288.996094 851.09375 278.390625 C 860.855469 274.25 869.257812 267.308594 875.492188 258.429688 C 877.933594 254.84375 879.964844 250.988281 881.621094 246.871094 C 889.59375 226.914062 883.824219 205.40625 867.375 191.0625 C 865.386719 188.371094 862.058594 186.070312 858.464844 184.183594 C 835.023438 172.097656 810.734375 176.847656 799.230469 180.015625 C 797.003906 180.632812 794.761719 181.1875 792.503906 181.671875 C 772.988281 186.078125 760.757812 199.292969 758.132812 214.015625 C 756.390625 223.578125 757.746094 233.347656 762.011719 241.992188 C 765.804688 249.601562 771.488281 256.226562 778.601562 261.003906 C 778.777344 261.113281 778.96875 261.230469 779.15625 261.347656 C 800.976562 285.425781 827.753906 288.996094 851.09375 278.390625 C 860.855469 274.25 869.257812 267.308594 875.492188 258.429688 C 877.933594 254.84375 879.964844 250.988281 881.621094 246.871094 C 889.59375 226.914062 883.824219 205.40625 867.382812 191.0625 C 863.726562 169.273438 859.679688 166.859375 855.34375 164.90625 C 833.097656 154.371094 810.16875 150.179688 789.089844 155.046875 C 781.1875 156.855469 773.90625 160.382812 767.296875 165.632812 C 766.972656 165.929688 766.675781 166.222656 766.378906 166.53125 C 759.210938 173.371094 753.644531 181.324219 750.117188 190.007812 C 749.183594 192.355469 748.386719 194.746094 747.722656 197.1875 C 744.683594 207.257812 744.363281 217.648438 746.773438 227.519531 C 747.277344 229.855469 747.925781 232.15625 748.707031 234.421875 C 748.878906 234.898438 749.070312 235.363281 749.269531 235.828125 C 755.910156 251.886719 766.914062 266.78125 780.78125 278.746094 C 782.667969 280.460938 784.542969 282.113281 786.402344 283.675781 C 797.902344 292.875 809.320312 300.089844 820.15625 305.066406 C 820.230469 305.09375 820.296875 305.125 820.367188 305.152344 C 821.15625 305.5 821.949219 305.832031 822.746094 306.152344 C 836.867188 311.65625 851.363281 314.492188 865.402344 314.492188 C 867.644531 314.492188 869.878906 314.410156 872.082031 314.257812 C 904.019531 312.050781 933.121094 297.726562 942.527344 273.769531 C 944.59375 268.480469 945.8125 262.988281 946.246094 257.253906 C 946.902344 248.027344 945.296875 238.625 941.539062 229.921875 C 940.398438 227.195312 939.09375 224.554688 937.636719 221.984375 C 937.332031 221.457031 937.007812 220.929688 936.679688 220.394531 C 926.808594 204.636719 913.265625 192.074219 897.292969 183.210938 C 891.511719 180.046875 885.480469 177.398438 879.210938 175.292969 C 874.042969 173.496094 868.644531 172.222656 863.035156 171.539062 C 839.25 168.59375 820.230469 177.996094 809.0625 193.5 C 807.554688 195.617188 806.210938 197.859375 805.019531 200.1875 C 800.398438 208.847656 797.847656 218.425781 797.890625 228.34375 C 797.941406 243.175781 803.464844 257.296875 813.359375 268.558594 C 813.492188 268.699219 813.625 268.835938 813.757812 268.972656 C 836.007812 289.179688 866.351562 293.183594 890.390625 277.179688 C 899.816406 271.144531 907.347656 262.003906 912.261719 251.089844 C 913.84375 247.753906 915.125 244.222656 916.082031 240.585938 C 919.472656 226.964844 917.113281 212.890625 909.082031 201.058594 C 907.226562 198.5625 905.152344 196.257812 902.878906 194.136719 C 884.128906 176.726562 859.761719 170.460938 836.710938 173.804688 C 831.820312 174.511719 827.027344 175.628906 822.347656 177.125 C 802.058594 183.9375 784.078125 197.984375 771.21875 216.046875 C 768.976562 219.023438 766.941406 222.085938 765.078125 225.210938 C 757.296875 238.546875 753.203125 254.070312 753.601562 270.496094 C 753.832031 279.671875 755.41875 288.527344 758.324219 296.984375 C 760.320312 302.671875 762.777344 308.175781 765.648438 313.414062 C 777.449219 334.761719 795.503906 349.113281 816.269531 354.601562 C 821.773438 355.90625 827.421875 356.71875 833.113281 357.058594 C 833.253906 357.066406 833.398438 357.074219 833.535156 357.085938 C 862.832031 360.25 892.007812 349.578125 907.800781 326.207031 C 910.457031 322.097656 912.683594 317.710938 914.480469 313.058594 C 921.167969 294.710938 917.597656 274.816406 904.183594 259.410156 C 901.796875 256.570312 899.136719 253.957031 896.246094 251.601562 C 895.621094 251.101562 895.007812 250.613281 894.386719 250.113281 C 876.996094 236.847656 853.871094 230.914062 832.457031 235.53125 C 828.636719 236.378906 824.988281 237.492188 821.441406 238.882812 C 801.625 246.355469 783.96875 260.636719 771.679688 279.195312 C 769.554688 282.15625 767.648438 285.222656 765.964844 288.371094 C 758.617188 302.492188 754.753906 318.539062 755.113281 335.363281 C 755.320312 344.511719 756.894531 353.363281 759.742188 361.78125 C 761.746094 367.476562 764.175781 372.941406 767.007812 378.160156 C 779.449219 399.859375 798.160156 414.53125 819.902344 419.96875 C 825.496094 421.289062 831.242188 422.09375 837.027344 422.40625 C 837.167969 422.414062 837.308594 422.421875 837.449219 422.429688 C 866.75 425.585938 895.921875 414.914062 911.71875 391.542969 C 914.375 387.433594 916.601562 383.046875 918.394531 378.398438 C 925.085938 360.050781 921.515625 339.976562 908.101562 324.753906 C 905.714844 321.910156 903.054688 319.296875 900.164062 316.941406 C 899.542969 316.445312 898.929688 315.960938 897.308594 314.851562 C 879.917969 301.585938 856.792969 295.652344 835.378906 300.269531 C 829.734375 301.457031 824.257812 303.171875 818.996094 305.367188 C 798.714844 313.058594 781.054688 327.339844 768.765625 345.898438 C 766.640625 348.859375 764.734375 351.925781 763.050781 355.070312 C 755.695312 369.207031 751.832031 385.253906 752.207031 402.078125 C 752.410156 411.222656 753.992188 420.074219 756.839844 428.53125 C 758.847656 434.230469 761.285156 439.695312 764.109375 444.917969 C 776.550781 466.613281 795.261719 481.285156 816.914062 486.722656 C 816.914062 486.722656 819.257812 487.285156 821.753906 487.285156 C 843.519531 487.285156 867.105469 480.375 889.226562 461.460938 L 889.210938 461.453125 C 905.976562 447.691406 922.027344 430.488281 925.226562 407.546875 C 925.652344 404.445312 925.738281 401.316406 925.5 398.214844 C 925 391.667969 923.496094 385.070312 921 378.609375 C 917.683594 370.265625 912.75 362.785156 906.53125 356.351562 C 906.15625 355.972656 905.757812 355.609375 905.375 355.25 Z M 950.261719 293.746094 "/>
<path style=" stroke:none;fill-rule:nonzero;fill:#173ed6;fill-opacity:1;" d="M 787.539062 389.878906 L 799.613281 331.210938 L 823.078125 299.859375 C 812.269531 288.375 809.515625 269.410156 825.40625 256.050781 C 839.199219 245.398438 849.160156 234.222656 855.046875 223.277344 C 860.085938 213.957031 862.144531 204.789062 861.117188 196.269531 C 860.679688 192.570312 859.667969 188.988281 858.03125 185.574219 C 852.464844 173.796875 839.847656 163.871094 819.707031 157.355469 C 781.230469 145.585938 743.308594 167.332031 740.867188 206.644531 C 740.226562 216.15625 738.910156 225.441406 736.929688 234.457031 C 736.753906 235.3125 736.570312 236.164062 736.363281 237.019531 C 728.277344 262.8125 706.738281 304.117188 689.9375 321.117188 C 707.863281 319.398438 726.933594 321.058594 746.449219 326.972656 C 750.894531 328.320312 755.386719 329.894531 759.882812 331.71875 C 765.980469 334.160156 772.085938 337.023438 778.230469 340.332031 C 783.113281 342.96875 787.992188 345.902344 792.875 349.125 C 843.1875 315.0625 889.746094 306.363281 947.90625 321.367188 C 949.164062 310.886719 950.019531 301.734375 950.261719 293.753906 C 950.652344 280.65625 949.371094 270.710938 945.4375 263.207031 C 943.355469 259.222656 940.492188 255.917969 936.734375 253.203125 C 930.78125 248.886719 922.5625 246.039062 911.464844 244.226562 C 907.878906 251.878906 903.164062 259.859375 897.023438 268.054688 C 894.265625 271.726562 891.226562 275.441406 887.886719 279.1875 C 881.03125 286.867188 872.863281 294.6875 863.175781 302.550781 C 848.585938 313.996094 832.667969 309.964844 823.082031 299.859375 C 823.039062 299.828125 823.007812 299.785156 822.980469 299.753906 C 812.269531 288.375 809.515625 269.410156 825.40625 256.050781 C 839.199219 245.398438 849.160156 234.222656 855.046875 223.277344 C 860.085938 213.957031 862.144531 204.789062 861.117188 196.269531 C 860.679688 192.570312 859.667969 188.988281 858.03125 185.574219 C 852.464844 173.796875 839.847656 163.871094 819.707031 157.355469 C 781.230469 145.585938 743.308594 167.332031 740.867188 206.644531 C 740.226562 216.15625 738.910156 225.441406 736.929688 234.457031 C 736.753906 235.3125 736.570312 236.164062 736.363281 237.019531 C 728.277344 262.8125 706.738281 304.117188 689.9375 321.117188 C 707.863281 319.398438 726.933594 321.058594 746.449219 326.972656 C 750.894531 328.320312 755.386719 329.894531 759.882812 331.71875 C 765.980469 334.160156 772.085938 337.023438 778.230469 340.332031 C 783.113281 342.96875 787.992188 345.902344 792.875 349.125 C 843.1875 315.0625 889.746094 306.363281 947.90625 321.367188 C 949.164062 310.886719 950.019531 301.734375 950.261719 293.753906 Z M 950.261719 293.753906 " transform="matrix(1,0,0,1,243.113281,300.824219)"/></g></svg>
